<svg width="260" height="50" viewBox="0 0 260 50" fill="none" xmlns="http://www.w3.org/2000/svg">
  <!-- Minimal FSI Logo Symbol -->
  <g transform="translate(25, 25) scale(0.3)">
    <!-- F letter - Navy blue -->
    <path d="M -40 -25 L -40 25 L -30 25 L -30 5 L -10 5 L -10 -5 L -30 -5 L -30 -15 L -5 -15 L -5 -25 Z" fill="#2D1B69"/>
    
    <!-- S letter - Blue with white accent -->
    <g transform="translate(15, 0)">
      <path d="M -12 -25 L 12 -25 L 12 -15 L -2 -15 L -2 -5 L 12 -5 L 12 25 L -12 25 L -12 15 L 2 15 L 2 5 L -12 5 Z" fill="#1E88E5"/>
      <path d="M -7 -10 L 7 -10 L 7 10 L -7 10 Z" fill="white"/>
      <path d="M -2 -5 L 2 -5 L 2 5 L -2 5 Z" fill="#1E88E5"/>
    </g>
    
    <!-- I letter - Navy blue -->
    <path d="M 35 -25 L 45 -25 L 45 25 L 35 25 Z" fill="#2D1B69"/>
  </g>
  
  <!-- Minimal typography -->
  <text x="65" y="18" font-family="Inter, sans-serif" font-size="18" font-weight="900" fill="#0f172a" letter-spacing="-1px">
    FREEZELINES
  </text>
  <text x="65" y="32" font-family="Inter, sans-serif" font-size="10" font-weight="500" fill="#3b82f6" letter-spacing="1px">
    SERVICES
  </text>
  <circle cx="220" cy="15" r="2" fill="#06b6d4"/>
  <text x="65" y="43" font-family="Inter, sans-serif" font-size="8" font-weight="400" fill="#64748b" letter-spacing="0.5px">
    HVAC SOLUTIONS
  </text>
</svg>